<?xml version="1.0" encoding="UTF-8" standalone="no"?>
<!-- Created with Inkscape (http://www.inkscape.org/) -->

<svg
   xmlns:dc="http://purl.org/dc/elements/1.1/"
   xmlns:cc="http://creativecommons.org/ns#"
   xmlns:rdf="http://www.w3.org/1999/02/22-rdf-syntax-ns#"
   xmlns:svg="http://www.w3.org/2000/svg"
   xmlns="http://www.w3.org/2000/svg"
   xmlns:sodipodi="http://sodipodi.sourceforge.net/DTD/sodipodi-0.dtd"
   xmlns:inkscape="http://www.inkscape.org/namespaces/inkscape"
   version="1.1"
   id="svg45"
   xml:space="preserve"
   width="756"
   height="756"
   viewBox="0 0 756 756"
   sodipodi:docname="pidinst-logo.svg"
   inkscape:version="0.92.2 5c3e80d, 2017-08-06"><metadata
     id="metadata51"><rdf:RDF><cc:Work
         rdf:about=""><dc:format>image/svg+xml</dc:format><dc:type
           rdf:resource="http://purl.org/dc/dcmitype/StillImage" /><dc:title></dc:title></cc:Work></rdf:RDF></metadata><defs
     id="defs49"><clipPath
       clipPathUnits="userSpaceOnUse"
       id="clipPath61"><path
         d="M 0,1.8311e-4 H 567 V 567.00018 H 0 Z"
         id="path59"
         inkscape:connector-curvature="0"
         style="clip-rule:evenodd" /></clipPath><clipPath
       clipPathUnits="userSpaceOnUse"
       id="clipPath77"><path
         d="M -1.0308e-5,567 H 567 V 1.8311e-4 H -1.0308e-5"
         id="path75"
         inkscape:connector-curvature="0"
         style="clip-rule:evenodd" /></clipPath></defs><sodipodi:namedview
     pagecolor="#ffffff"
     bordercolor="#666666"
     borderopacity="1"
     objecttolerance="10"
     gridtolerance="10"
     guidetolerance="10"
     inkscape:pageopacity="0"
     inkscape:pageshadow="2"
     inkscape:window-width="731"
     inkscape:window-height="480"
     id="namedview47"
     showgrid="false"
     inkscape:zoom="0.31216931"
     inkscape:cx="378"
     inkscape:cy="378"
     inkscape:window-x="0"
     inkscape:window-y="0"
     inkscape:window-maximized="0"
     inkscape:current-layer="g53" /><g
     id="g53"
     inkscape:groupmode="layer"
     inkscape:label="pidinst-logo"
     transform="matrix(1.3333333,0,0,-1.3333333,0,756)"><g
       id="g55"><g
         id="g57"
         clip-path="url(#clipPath61)"><path
           d="M 0,6.1035e-5 H 567 V 567.00006 H 0 Z"
           style="fill:#8064a2;fill-opacity:1;fill-rule:evenodd;stroke:none"
           id="path63"
           inkscape:connector-curvature="0" /></g></g><path
       d="m 48.967,171.56 v 264.86 h 70.463 c 26.26,0 43.42,-1.26 51.49,-3.79 12.89,-4.1 23.52,-12.83 31.89,-26.2 8.37,-13.37 12.56,-30.59 12.56,-51.67 0,-19.15 -3.62,-35.2 -10.84,-48.15 -7.23,-12.95 -16.26,-22.04 -27.1,-27.28 -10.84,-5.24 -29.51,-7.86 -56.01,-7.86 H 92.69 V 171.56 Z M 92.69,391.62 v -75.34 h 24.27 c 16.29,0 27.37,1.14 33.23,3.44 5.85,2.29 10.65,6.43 14.4,12.4 3.74,5.98 5.61,13.31 5.61,22.01 0,8.81 -1.93,16.24 -5.8,22.27 -3.86,6.04 -8.63,10.09 -14.3,12.14 -5.68,2.05 -17.69,3.08 -36.04,3.08 z"
       style="fill:#ffffff;fill-opacity:1;fill-rule:nonzero;stroke:none"
       id="path65"
       inkscape:connector-curvature="0" /><path
       d="M 334.72,435.36 C 436.48,435.17 518.83,352.54 518.64,250.79 518.45,149.37 436.31,67.166 334.86,66.9 l -0.12,45.59 c 76.59,0.2 138.51,62.43 138.31,139 -0.2,76.33 -62.07,138.14 -138.42,138.28 z"
       style="fill:#ffc000;fill-opacity:1;fill-rule:evenodd;stroke:none"
       id="path67"
       inkscape:connector-curvature="0" /><path
       d="m 252.44,171.56 h 43.723 V 436.43 H 252.44 Z"
       style="fill:#ffc000;fill-opacity:1;fill-rule:nonzero;stroke:none"
       id="path69"
       inkscape:connector-curvature="0" /><g
       id="g71"><g
         id="g73"
         clip-path="url(#clipPath77)"><path
           d="m 251.7,452.4 h 43.68 v 43.92 H 251.7 Z"
           style="fill:#ffc000;fill-opacity:1;fill-rule:evenodd;stroke:none"
           id="path79"
           inkscape:connector-curvature="0" /></g></g><path
       d="m 182.16,66.9 h 113.4 v 45.06 h -113.4 z"
       style="fill:#ffc000;fill-opacity:1;fill-rule:evenodd;stroke:none"
       id="path81"
       inkscape:connector-curvature="0" /></g></svg>